<svg width="67" height="67" viewBox="0 0 67 67" fill="none" xmlns="http://www.w3.org/2000/svg">
<circle cx="33.5" cy="33.5" r="33.5" fill="white"/>
<path fill-rule="evenodd" clip-rule="evenodd" d="M33.5 67C52.0015 67 67 52.0015 67 33.5C67 14.9985 52.0015 0 33.5 0C14.9985 0 0 14.9985 0 33.5C0 52.0015 14.9985 67 33.5 67ZM10.3077 18.8974L40.3718 15.4615L43.5214 20.1859C41.4053 20.6297 39.4698 21.033 37.6424 21.4138L37.6315 21.416L37.6285 21.4166L37.6284 21.4167L37.6281 21.4167C29.6356 23.0821 23.7077 24.3172 13.7662 26.6282L10.3077 18.8974ZM57.5513 41.2308C44.7062 43.9397 37.5884 46.2967 24.9103 51.5385L21.4744 43.8582C33.8724 38.9255 40.8479 37.143 53.2564 34.7885L57.5513 41.2308ZM16.0719 31.7821C27.6231 28.2444 34.4152 26.7772 46.6709 24.9103L50.6795 30.9231C38.3401 32.5272 31.3991 33.9052 18.8974 38.098L16.0719 31.7821Z" fill="#D61331"/>
</svg>
