<svg width="67" height="67" viewBox="0 0 67 67" fill="none" xmlns="http://www.w3.org/2000/svg">
<path d="M33.4448 0C14.9968 0 0 15.0145 0 33.4624C0 51.9103 14.9968 66.9072 33.4448 66.9072C51.8927 66.9072 66.9072 51.9103 66.9072 33.4624C66.9072 15.0145 51.8927 9.0315e-06 33.4448 0ZM33.4448 4.78035C49.3098 4.78035 62.1268 17.5973 62.1268 33.4624C62.1268 49.3275 49.3098 62.1268 33.4448 62.1268C17.5797 62.1268 4.78034 49.3275 4.78034 33.4624C4.78034 17.5973 17.5797 4.78035 33.4448 4.78035Z" fill="#3D5B80"/>
<path d="M34.2275 31.2855C31.2669 29.7422 29.1713 28.4032 29.1713 25.211C29.1713 22.9044 31.1132 21.0278 33.5 21.0278C35.8868 21.0278 37.8287 22.899 37.8287 25.1991V26.7731H40.9769V25.1991C40.9769 21.6916 38.4435 18.753 35.0741 18.0434V13H31.9259V18.0436C28.5565 18.7544 26.0231 21.6979 26.0231 25.211C26.0231 27.5189 26.7627 29.4149 28.2842 31.0073C29.5669 32.3498 31.2048 33.2599 32.7725 34.0771C36.555 36.0488 38.8519 37.4337 38.8519 40.0347C38.8519 42.9566 36.4018 45.4251 33.5015 45.4259H33.4986C30.5982 45.4251 28.1481 42.9386 28.1481 39.9954V38.4213H25V39.9954C25 42.2555 25.8839 44.398 27.4891 46.0282C28.7239 47.2824 30.2614 48.1055 31.9259 48.4245V53.2963H35.0741V48.4259C36.738 48.1099 38.274 47.2946 39.5066 46.0523C41.1145 44.4318 42 42.2947 42 40.0347C42 35.3368 37.8707 33.1844 34.2275 31.2855Z" fill="#3D5B80"/>
</svg>
