<svg width="71" height="71" viewBox="0 0 71 71" fill="none" xmlns="http://www.w3.org/2000/svg">
<path d="M34.4448 4C15.9968 4 1 19.0145 1 37.4624C1 55.9103 15.9968 70.9072 34.4448 70.9072C52.8927 70.9072 67.9072 55.9103 67.9072 37.4624C67.9072 36.4643 67.8632 35.4762 67.7771 34.5H62.9764C63.0758 35.4737 63.1268 36.462 63.1268 37.4624C63.1268 53.3275 50.3098 66.1268 34.4448 66.1268C18.5797 66.1268 5.78034 53.3275 5.78034 37.4624C5.78034 21.5973 20.1349 8.78035 36 8.78035V4.0357C35.4845 4.01199 34.966 4 34.4448 4Z" fill="#636365"/>
<mask id="path-2-inside-1_272_171" fill="white">
<path d="M71 35.5C71 30.8381 70.0818 26.2218 68.2977 21.9147C66.5137 17.6077 63.8988 13.6942 60.6023 10.3977C57.3058 7.10123 53.3923 4.48632 49.0853 2.70228C44.7782 0.918234 40.1619 -2.03779e-07 35.5 0L35.5 35.5H71Z"/>
</mask>
<path d="M71 35.5C71 30.8381 70.0818 26.2218 68.2977 21.9147C66.5137 17.6077 63.8988 13.6942 60.6023 10.3977C57.3058 7.10123 53.3923 4.48632 49.0853 2.70228C44.7782 0.918234 40.1619 -2.03779e-07 35.5 0L35.5 35.5H71Z" stroke="#636365" stroke-width="8.35294" mask="url(#path-2-inside-1_272_171)"/>
</svg>
