<svg width="67" height="67" viewBox="0 0 67 67" fill="none" xmlns="http://www.w3.org/2000/svg">
<g clip-path="url(#clip0_7_5)">
<path d="M33.4448 0C14.9968 0 0 15.0145 0 33.4624C0 51.9103 14.9968 66.9072 33.4448 66.9072C51.8927 66.9072 66.9072 51.9103 66.9072 33.4624C66.9072 15.0145 51.8927 9.0315e-06 33.4448 0ZM33.4448 4.78035C49.3098 4.78035 62.1268 17.5973 62.1268 33.4624C62.1268 49.3275 49.3098 62.1268 33.4448 62.1268C17.5797 62.1268 4.78034 49.3275 4.78034 33.4624C4.78034 17.5973 17.5797 4.78035 33.4448 4.78035Z" fill="#304F7E"/>
<path d="M24.4727 23C24.1492 22.999 23.8287 23.0497 23.5294 23.1493C23.2301 23.2489 22.9578 23.3954 22.7282 23.5804C22.4986 23.7655 22.3162 23.9855 22.1912 24.2278C22.0662 24.4701 22.0013 24.7301 22 24.9928C21.9988 25.2568 22.0619 25.5185 22.1857 25.7626C22.3095 26.0067 22.4916 26.2285 22.7214 26.4152C22.9513 26.6019 23.2244 26.7498 23.5249 26.8504C23.8255 26.9509 24.1476 27.0022 24.4727 27.0011H31.0345V47.0145H24.4727C24.1492 47.0134 23.8287 47.0642 23.5294 47.1638C23.2301 47.2633 22.9578 47.4098 22.7282 47.5949C22.4986 47.78 22.3162 47.9999 22.1912 48.2423C22.0662 48.4845 22.0013 48.7445 22 49.0072C22.0013 49.2699 22.0662 49.5299 22.1912 49.7722C22.3162 50.0145 22.4986 50.2345 22.7282 50.4196C22.9578 50.6046 23.2301 50.7511 23.5294 50.8506C23.8287 50.9503 24.1492 51.001 24.4727 51H42.5272C42.8507 51.001 43.1712 50.9503 43.4706 50.8506C43.7699 50.7511 44.0421 50.6046 44.2718 50.4196C44.5013 50.2345 44.6839 50.0145 44.8088 49.7722C44.9337 49.5299 44.9987 49.2699 45 49.0072C44.9987 48.7445 44.9337 48.4845 44.8088 48.2423C44.6839 47.9999 44.5013 47.78 44.2718 47.5949C44.0421 47.4098 43.7699 47.2633 43.4706 47.1638C43.1712 47.0642 42.8507 47.0134 42.5272 47.0145H35.9607V24.9928C35.958 24.4622 35.6961 23.9543 35.2323 23.5805C34.7686 23.2068 34.1412 22.998 33.488 23H24.4727Z" fill="#304F7E"/>
<path d="M32.2197 18.223C33.8766 18.223 35.2197 16.8799 35.2197 15.223C35.2197 13.5662 33.8766 12.223 32.2197 12.223C30.5628 12.223 29.2197 13.5662 29.2197 15.223C29.2197 16.8799 30.5628 18.223 32.2197 18.223Z" fill="#304F7E"/>
</g>
<defs>
<clipPath id="clip0_7_5">
<rect width="67" height="67" fill="white"/>
</clipPath>
</defs>
</svg>
